<svg width="138" height="24" viewBox="0 0 138 24" fill="none" xmlns="http://www.w3.org/2000/svg">
<path d="M20.9984 19.198C20.9187 19.2534 20.8364 19.3058 20.7517 19.3552L18 20.9579L7.20864 14.6726V9.32108L17.9946 3.03901L20.7517 4.64482C20.8488 4.70132 20.9426 4.76192 21.0331 4.82632L13.3255 9.30737V9.2964L10.2365 11.1033V12.941L13.3255 14.744V12.9188L22.5732 7.53269C22.5822 7.63804 22.5868 7.7443 22.5868 7.85121V11.0933L16.4288 14.6977L16.4288 16.5489L20.9984 19.198Z" fill="url(#paint0_radial_5_152)"/>
<path d="M14.9056 1.23987L13.6285 0.496029C12.4929 -0.165344 11.0939 -0.165344 9.95834 0.496029L2.83507 4.64482C1.69952 5.3062 1 6.52846 1 7.8512V16.1488C1 17.4715 1.69952 18.6938 2.83506 19.3552L9.95834 23.504C11.0939 24.1653 12.4929 24.1653 13.6285 23.504L14.911 22.757L4.11961 16.4718L4.11961 7.52429L4.12384 7.52674L4.11961 7.52194L14.9056 1.23987Z" fill="url(#paint1_radial_5_152)"/>
<path d="M95.8358 17.8674V6.28177H97.8193V16.011H103.181V17.8674H95.8358Z" fill="white"/>
<path d="M107.021 15.232L105.844 17.8674H103.726L108.903 6.28177H111.021L116.198 17.8674H114.08L112.904 15.232H107.021ZM112.097 13.4254L109.962 8.65193L107.828 13.4254H112.097Z" fill="white"/>
<path d="M122.976 17.8674H117.832V6.28177H122.404C123.2 6.28177 123.883 6.37569 124.455 6.56354C125.038 6.75138 125.469 7.00552 125.749 7.32597C126.287 7.92265 126.556 8.59669 126.556 9.34807C126.556 10.2541 126.265 10.9282 125.682 11.3702C125.469 11.5249 125.323 11.6243 125.245 11.6685C125.166 11.7017 125.026 11.7624 124.825 11.8508C125.553 12.0055 126.13 12.3315 126.556 12.8287C126.993 13.3149 127.212 13.9227 127.212 14.6519C127.212 15.4586 126.931 16.1713 126.371 16.7901C125.71 17.5083 124.578 17.8674 122.976 17.8674ZM119.816 11.0884H122.337C123.771 11.0884 124.488 10.6077 124.488 9.64641C124.488 9.09392 124.315 8.69613 123.967 8.45304C123.62 8.20994 123.082 8.0884 122.354 8.0884H119.816V11.0884ZM119.816 16.0608H122.925C123.654 16.0608 124.208 15.9503 124.589 15.7293C124.982 15.4972 125.178 15.0663 125.178 14.4365C125.178 13.4088 124.343 12.895 122.673 12.895H119.816V16.0608Z" fill="white"/>
<path d="M133.247 7.80663C132.675 7.80663 132.205 7.92265 131.835 8.1547C131.465 8.38674 131.28 8.74033 131.28 9.21547C131.28 9.67956 131.465 10.0387 131.835 10.2928C132.205 10.5359 132.989 10.8011 134.188 11.0884C135.398 11.3757 136.306 11.779 136.911 12.2983C137.528 12.8177 137.836 13.5856 137.836 14.6022C137.836 15.6077 137.449 16.4254 136.676 17.0552C135.903 17.6851 134.889 18 133.634 18C131.796 18 130.165 17.3757 128.742 16.1271L129.986 14.6519C131.174 15.6685 132.406 16.1768 133.684 16.1768C134.323 16.1768 134.827 16.0442 135.197 15.779C135.578 15.5028 135.768 15.1436 135.768 14.7017C135.768 14.2486 135.589 13.9006 135.23 13.6575C134.883 13.4033 134.278 13.1768 133.415 12.9779C132.552 12.768 131.897 12.5801 131.448 12.4144C131 12.2376 130.602 12.011 130.255 11.7348C129.56 11.2155 129.213 10.4199 129.213 9.34807C129.213 8.27624 129.605 7.45304 130.389 6.87845C131.185 6.29282 132.166 6 133.331 6C134.082 6 134.827 6.12155 135.567 6.36464C136.306 6.60773 136.945 6.95028 137.483 7.39227L136.424 8.8674C136.076 8.55801 135.606 8.30387 135.012 8.10497C134.418 7.90608 133.83 7.80663 133.247 7.80663Z" fill="white"/>
<path d="M38.1993 6C36.4374 6 34.9467 6.56978 33.7615 7.72178L33.76 7.72326C32.5856 8.87553 32 10.3222 32 12.0307C32 13.7364 32.5735 15.1738 33.7294 16.3075L33.7309 16.309C34.8952 17.4399 36.3549 18 38.0766 18C39.8351 18 41.3345 17.3129 42.5502 15.9657L42.8335 15.6518L41.0648 13.8366L40.7421 14.1391C40.2759 14.5761 39.8449 14.8818 39.4498 15.071C39.0727 15.2416 38.6041 15.3354 38.0307 15.3354C37.1528 15.3354 36.3974 15.023 35.7435 14.3791C35.107 13.7325 34.7872 12.9394 34.7872 11.9693C34.7872 10.9888 35.1118 10.2169 35.7496 9.61453L35.752 9.61226C36.3982 8.99296 37.1936 8.67989 38.1686 8.67989C38.7353 8.67989 39.2032 8.76973 39.5841 8.93422L39.5875 8.93564C39.9802 9.10144 40.4203 9.40548 40.9069 9.87258L41.2401 10.1924L42.9788 8.2914L42.7025 7.98721C41.5026 6.66622 39.9913 6 38.1993 6Z" fill="white"/>
<path fill-rule="evenodd" clip-rule="evenodd" d="M73.3425 6C71.6372 6 70.1833 6.57296 69.0113 7.7225C67.8365 8.86438 67.2505 10.3012 67.2505 12C67.2505 13.6898 67.8373 15.1257 69.0105 16.2767L69.0121 16.2783C70.1845 17.4175 71.6381 17.9847 73.3425 17.9847C75.0468 17.9847 76.5005 17.4175 77.6729 16.2783L77.6745 16.2767C78.8477 15.1257 79.4345 13.6898 79.4345 12C79.4345 10.3012 78.8484 8.8644 77.6737 7.72252C76.5017 6.57297 75.0478 6 73.3425 6ZM70.007 12C70.007 11.0293 70.3274 10.2231 70.9687 9.55414C71.6187 8.88655 72.4009 8.55726 73.3425 8.55726C74.2844 8.55726 75.0605 8.88668 75.6997 9.5529L75.7019 9.55516C76.3534 10.2248 76.6779 11.0307 76.6779 12C76.6779 12.9578 76.3543 13.759 75.7019 14.4295L75.6997 14.4318C75.0605 15.098 74.2844 15.4274 73.3425 15.4274C72.4009 15.4274 71.6187 15.0981 70.9687 14.4305C70.3266 13.7607 70.007 12.9592 70.007 12Z" fill="white"/>
<path d="M84.5763 6C83.4342 6 82.4411 6.29237 81.6249 6.90138C80.781 7.52829 80.3698 8.43189 80.3698 9.54734C80.3698 10.6385 80.7235 11.5234 81.4932 12.1098C81.8465 12.3938 82.2471 12.624 82.692 12.8019L82.7012 12.8054C83.1348 12.968 83.7528 13.1467 84.545 13.3422L84.5504 13.3434C85.327 13.525 85.8016 13.7182 86.0399 13.895L86.0464 13.8998L86.0531 13.9044C86.2499 14.0397 86.3482 14.2183 86.3482 14.4986C86.3482 14.7546 86.2504 14.9552 86.0118 15.1311C85.7768 15.3016 85.4216 15.4121 84.8982 15.4121C83.8653 15.4121 82.8423 14.9983 81.8214 14.1122L81.4736 13.8103L79.7661 15.864L80.0918 16.1538C81.4689 17.3791 83.0614 18 84.8523 18C86.0746 18 87.1094 17.6876 87.914 17.023C88.7248 16.3532 89.1354 15.4685 89.1354 14.4067C89.1354 13.3741 88.8232 12.5227 88.136 11.9346C87.5076 11.3883 86.602 10.9927 85.4642 10.7187C84.9253 10.5877 84.4876 10.4637 84.1477 10.3472C83.8046 10.2295 83.5864 10.1279 83.466 10.0485C83.2585 9.90244 83.157 9.71241 83.157 9.42471C83.157 9.12119 83.2616 8.94653 83.4541 8.82401C83.7001 8.66749 84.0386 8.57259 84.4997 8.57259C84.9781 8.57259 85.4658 8.65526 85.9643 8.82456C86.4664 8.99511 86.8361 9.20383 87.0947 9.43738L87.4715 9.77773L88.9714 7.6589L88.6513 7.39215C88.1129 6.94352 87.4795 6.60097 86.7577 6.36038C86.039 6.12082 85.3113 6 84.5763 6Z" fill="white"/>
<path d="M46.6876 6.26059H43.9771V17.8774H46.6876V13.4932H51.1051V17.8774H53.8157V6.26059H51.1051V10.9053H46.6876V6.26059Z" fill="white"/>
<path fill-rule="evenodd" clip-rule="evenodd" d="M62.474 6.26059H59.9545L54.8358 17.8774H57.7528L58.8258 15.44H63.6027L64.6758 17.8774H67.5927L62.474 6.26059ZM59.959 12.8674L61.2143 10.0209L62.4695 12.8674H59.959Z" fill="white"/>
<defs>
<radialGradient id="paint0_radial_5_152" cx="0" cy="0" r="1" gradientUnits="userSpaceOnUse" gradientTransform="translate(6.45724 21.9477) rotate(-54.6998) scale(21.8989 35.2658)">
<stop stop-color="#31D8BF"/>
<stop offset="1" stop-color="#0965F1"/>
</radialGradient>
<radialGradient id="paint1_radial_5_152" cx="0" cy="0" r="1" gradientUnits="userSpaceOnUse" gradientTransform="translate(6.45724 21.9477) rotate(-54.6998) scale(21.8989 35.2658)">
<stop stop-color="#31D8BF"/>
<stop offset="1" stop-color="#0965F1"/>
</radialGradient>
</defs>
</svg>
